<svg xmlns="http://www.w3.org/2000/svg" height="512pt" version="1.1" viewBox="0 -22 512.00065 512" width="512pt">
<g id="surface1">
<path d="M 296.886719 468.328125 C 266.625 468.328125 242 443.707031 242 413.441406 C 242 383.175781 266.625 358.554688 296.886719 358.554688 C 327.152344 358.554688 351.777344 383.175781 351.777344 413.441406 C 351.777344 443.707031 327.152344 468.328125 296.886719 468.328125 Z M 296.886719 468.328125 " style=" stroke:none;fill-rule:nonzero;fill:rgb(96.470588%,29.803922%,10.980392%);fill-opacity:1;" />
<path d="M 124.152344 468.328125 C 93.886719 468.328125 69.265625 443.707031 69.265625 413.441406 C 69.265625 383.175781 93.886719 358.554688 124.152344 358.554688 C 154.417969 358.554688 179.039062 383.175781 179.039062 413.441406 C 179.039062 443.707031 154.417969 468.328125 124.152344 468.328125 Z M 124.152344 468.328125 " style=" stroke:none;fill-rule:nonzero;fill:rgb(100%,43.921569%,27.058824%);fill-opacity:1;" />
<path d="M 496.761719 0 L 436.246094 0 C 429.578125 0 423.6875 4.335938 421.699219 10.703125 L 396.480469 91.597656 L 15.238281 91.597656 C 10.394531 91.597656 5.835938 93.902344 2.964844 97.804688 C 0.09375 101.710938 -0.75 106.746094 0.691406 111.371094 L 65.789062 320.183594 C 67.773438 326.550781 73.667969 330.886719 80.335938 330.886719 L 342.59375 330.886719 C 349.261719 330.886719 355.15625 326.546875 357.140625 320.183594 L 422.132812 111.714844 C 422.207031 111.492188 422.277344 111.265625 422.34375 111.039062 L 447.457031 30.476562 L 496.761719 30.476562 C 505.179688 30.476562 512 23.652344 512 15.238281 C 512 6.824219 505.179688 0 496.761719 0 Z M 172.722656 196.003906 L 165.324219 122.074219 L 257.605469 122.074219 L 250.207031 196.003906 Z M 247.160156 226.480469 L 239.761719 300.410156 L 183.167969 300.410156 L 175.773438 226.480469 Z M 134.699219 122.074219 L 142.097656 196.003906 L 59 196.003906 L 35.949219 122.074219 Z M 68.5 226.480469 L 145.144531 226.480469 L 152.542969 300.410156 L 91.546875 300.410156 Z M 331.382812 300.410156 L 270.390625 300.410156 L 277.785156 226.480469 L 354.429688 226.480469 Z M 363.933594 196.003906 L 280.835938 196.003906 L 288.234375 122.074219 L 386.980469 122.074219 Z M 363.933594 196.003906 " style=" stroke:none;fill-rule:nonzero;fill:rgb(23.137255%,28.627451%,34.509804%);fill-opacity:1;" />
<path d="M 496.761719 0 L 436.246094 0 C 429.578125 0 423.6875 4.335938 421.699219 10.703125 L 396.480469 91.597656 L 211.464844 91.597656 L 211.464844 122.074219 L 257.605469 122.074219 L 250.207031 196.003906 L 211.464844 196.003906 L 211.464844 226.480469 L 247.160156 226.480469 L 239.761719 300.40625 L 211.464844 300.40625 L 211.464844 330.882812 L 342.59375 330.882812 C 349.261719 330.882812 355.15625 326.546875 357.140625 320.183594 L 422.132812 111.714844 C 422.207031 111.492188 422.277344 111.265625 422.34375 111.039062 L 447.460938 30.476562 L 496.761719 30.476562 C 505.179688 30.476562 512 23.652344 512 15.238281 C 512 6.820312 505.179688 0 496.761719 0 Z M 331.382812 300.410156 L 270.390625 300.410156 L 277.785156 226.480469 L 354.429688 226.480469 Z M 363.933594 196.003906 L 280.835938 196.003906 L 288.234375 122.074219 L 386.980469 122.074219 Z M 363.933594 196.003906 " style=" stroke:none;fill-rule:nonzero;fill:rgb(9.019608%,12.54902%,16.470588%);fill-opacity:1;" />
</g>
</svg>